<svg xmlns="http://www.w3.org/2000/svg" viewBox="0 0 900 650" role="img" aria-labelledby="title desc">
  <title id="title">Sala limpia y luminosa</title>
  <desc id="desc">Ilustración de una sala moderna recién limpiada con productos de limpieza.</desc>
  <defs>
    <linearGradient id="bg" x1="0" y1="0" x2="1" y2="1"><stop stop-color="#dbeafe"/><stop offset="1" stop-color="#eef2ff"/></linearGradient>
    <linearGradient id="sofa" x1="0" y1="0" x2="0" y2="1"><stop stop-color="#60a5fa"/><stop offset="1" stop-color="#2563eb"/></linearGradient>
    <filter id="shadow" x="-20%" y="-20%" width="140%" height="140%"><feDropShadow dx="0" dy="18" stdDeviation="18" flood-color="#1e3a8a" flood-opacity=".18"/></filter>
  </defs>
  <rect width="900" height="650" rx="48" fill="url(#bg)"/>
  <circle cx="755" cy="110" r="72" fill="#fef3c7"/>
  <path d="M680 0h220v260c-52-10-112-48-152-94-41-47-60-103-68-166Z" fill="#bfdbfe" opacity=".55"/>
  <rect x="85" y="88" width="260" height="190" rx="22" fill="#fff" opacity=".92"/>
  <rect x="108" y="111" width="214" height="144" rx="12" fill="#bae6fd"/>
  <path d="M215 112v143M108 183h214" stroke="#fff" stroke-width="12"/>
  <path d="M96 500h708" stroke="#cbd5e1" stroke-width="9" stroke-linecap="round"/>
  <g filter="url(#shadow)">
    <rect x="190" y="316" width="462" height="158" rx="40" fill="url(#sofa)"/>
    <rect x="160" y="365" width="88" height="128" rx="34" fill="#1d4ed8"/>
    <rect x="594" y="365" width="88" height="128" rx="34" fill="#1d4ed8"/>
    <rect x="218" y="290" width="190" height="96" rx="28" fill="#93c5fd"/>
    <rect x="434" y="290" width="190" height="96" rx="28" fill="#dbeafe"/>
  </g>
  <ellipse cx="425" cy="548" rx="285" ry="48" fill="#fff" opacity=".75"/>
  <g transform="translate(668 350)" filter="url(#shadow)">
    <path d="M56 32h64l17 178H39Z" fill="#0f766e"/>
    <path d="M72 0h35v55H72z" fill="#14b8a6"/>
    <path d="M61 4h58v18H61z" fill="#0f766e"/>
    <rect x="54" y="78" width="72" height="62" rx="12" fill="#ccfbf1"/>
    <path d="M73 108h34" stroke="#14b8a6" stroke-width="8" stroke-linecap="round"/>
  </g>
  <g fill="#fff" opacity=".92">
    <path d="M728 280l9 20 21 9-21 9-9 21-9-21-21-9 21-9Z"/>
    <path d="M790 324l6 13 14 6-14 6-6 14-6-14-14-6 14-6Z"/>
    <path d="M128 315l7 16 17 7-17 7-7 17-7-17-16-7 16-7Z"/>
  </g>
</svg>
