<svg xmlns="http://www.w3.org/2000/svg" viewBox="0 0 900 560" role="img" aria-labelledby="title desc">
  <title id="title">Limpieza para mudanza</title>
  <desc id="desc">Ilustración de un departamento vacío, cajas ordenadas y utensilios de limpieza.</desc>
  <defs>
    <linearGradient id="bg" x1="0" y1="0" x2="1" y2="1"><stop stop-color="#ccfbf1"/><stop offset="1" stop-color="#e0f2fe"/></linearGradient>
    <filter id="s"><feDropShadow dx="0" dy="13" stdDeviation="14" flood-color="#115e59" flood-opacity=".16"/></filter>
  </defs>
  <rect width="900" height="560" rx="40" fill="url(#bg)"/>
  <path d="M80 438h740" stroke="#94a3b8" stroke-width="9" stroke-linecap="round"/>
  <rect x="92" y="70" width="716" height="340" rx="26" fill="#fff" filter="url(#s)"/>
  <rect x="128" y="104" width="248" height="202" rx="18" fill="#bae6fd"/>
  <path d="M252 104v202M128 205h248" stroke="#fff" stroke-width="13"/>
  <rect x="428" y="104" width="330" height="52" rx="12" fill="#e2e8f0"/>
  <rect x="428" y="179" width="330" height="52" rx="12" fill="#e2e8f0"/>
  <rect x="428" y="254" width="206" height="52" rx="12" fill="#e2e8f0"/>
  <g filter="url(#s)">
    <rect x="178" y="354" width="170" height="134" rx="14" fill="#d97706"/>
    <path d="M178 389h170M263 354v134" stroke="#fbbf24" stroke-width="9"/>
    <rect x="360" y="380" width="146" height="108" rx="14" fill="#f59e0b"/>
    <path d="M360 411h146M433 380v108" stroke="#fde68a" stroke-width="8"/>
  </g>
  <g transform="translate(640 330)" filter="url(#s)">
    <path d="M0 132h100L86 32H25Z" fill="#0f766e"/>
    <rect x="42" y="0" width="32" height="50" rx="7" fill="#2dd4bf"/>
    <path d="M34 4h76v18H34z" fill="#0f766e"/>
    <path d="M110 9h40" stroke="#0f766e" stroke-width="12" stroke-linecap="round"/>
  </g>
  <path d="M580 488c18-83 36-151 55-207" stroke="#475569" stroke-width="13" stroke-linecap="round"/>
  <path d="M540 484h100" stroke="#14b8a6" stroke-width="24" stroke-linecap="round"/>
  <g fill="#fff">
    <path d="M755 64l9 21 22 9-22 9-9 22-9-22-21-9 21-9Z"/>
    <path d="M411 328l6 14 15 6-15 6-6 15-6-15-14-6 14-6Z"/>
  </g>
</svg>
